<mxfile host="app.diagrams.net" modified="2022-09-30T20:00:40.281Z" agent="5.0 (Windows NT 10.0; Win64; x64) AppleWebKit/537.36 (KHTML, like Gecko) Chrome/105.0.0.0 Safari/537.36" etag="iMYlEOw6CUQZGxQmXRF5" version="20.4.0" type="github">
  <diagram id="5EIz8BgEeGDXKDfLES4Q" name="PÃ¡gina-1">
    <mxGraphModel dx="868" dy="393" grid="1" gridSize="10" guides="1" tooltips="1" connect="1" arrows="1" fold="1" page="1" pageScale="1" pageWidth="827" pageHeight="1169" math="0" shadow="0">
      <root>
        <mxCell id="0" />
        <mxCell id="1" parent="0" />
        <mxCell id="UGg4PgSskXbCSSMDs-lN-6" value="" style="ellipse;whiteSpace=wrap;html=1;aspect=fixed;" vertex="1" parent="1">
          <mxGeometry x="410" y="40" width="30" height="30" as="geometry" />
        </mxCell>
        <mxCell id="UGg4PgSskXbCSSMDs-lN-7" value="" style="ellipse;whiteSpace=wrap;html=1;aspect=fixed;" vertex="1" parent="1">
          <mxGeometry x="410" y="90" width="30" height="30" as="geometry" />
        </mxCell>
        <mxCell id="UGg4PgSskXbCSSMDs-lN-8" value="" style="ellipse;whiteSpace=wrap;html=1;aspect=fixed;" vertex="1" parent="1">
          <mxGeometry x="410" y="140" width="30" height="30" as="geometry" />
        </mxCell>
        <mxCell id="UGg4PgSskXbCSSMDs-lN-10" value="" style="ellipse;whiteSpace=wrap;html=1;aspect=fixed;" vertex="1" parent="1">
          <mxGeometry x="410" y="230" width="30" height="30" as="geometry" />
        </mxCell>
        <mxCell id="UGg4PgSskXbCSSMDs-lN-13" value="" style="ellipse;whiteSpace=wrap;html=1;aspect=fixed;" vertex="1" parent="1">
          <mxGeometry x="410" y="285" width="30" height="30" as="geometry" />
        </mxCell>
        <mxCell id="UGg4PgSskXbCSSMDs-lN-14" value="" style="ellipse;whiteSpace=wrap;html=1;aspect=fixed;" vertex="1" parent="1">
          <mxGeometry x="410" y="340" width="30" height="30" as="geometry" />
        </mxCell>
        <mxCell id="UGg4PgSskXbCSSMDs-lN-15" value="" style="ellipse;whiteSpace=wrap;html=1;aspect=fixed;" vertex="1" parent="1">
          <mxGeometry x="410" y="420" width="30" height="30" as="geometry" />
        </mxCell>
        <mxCell id="UGg4PgSskXbCSSMDs-lN-16" value="" style="ellipse;whiteSpace=wrap;html=1;aspect=fixed;" vertex="1" parent="1">
          <mxGeometry x="410" y="470" width="30" height="30" as="geometry" />
        </mxCell>
        <mxCell id="UGg4PgSskXbCSSMDs-lN-17" value="" style="ellipse;whiteSpace=wrap;html=1;aspect=fixed;" vertex="1" parent="1">
          <mxGeometry x="410" y="520" width="30" height="30" as="geometry" />
        </mxCell>
        <mxCell id="UGg4PgSskXbCSSMDs-lN-18" value="" style="ellipse;whiteSpace=wrap;html=1;aspect=fixed;" vertex="1" parent="1">
          <mxGeometry x="520" y="230" width="30" height="30" as="geometry" />
        </mxCell>
        <mxCell id="UGg4PgSskXbCSSMDs-lN-19" value="" style="ellipse;whiteSpace=wrap;html=1;aspect=fixed;" vertex="1" parent="1">
          <mxGeometry x="520" y="285" width="30" height="30" as="geometry" />
        </mxCell>
        <mxCell id="UGg4PgSskXbCSSMDs-lN-20" value="" style="ellipse;whiteSpace=wrap;html=1;aspect=fixed;" vertex="1" parent="1">
          <mxGeometry x="520" y="340" width="30" height="30" as="geometry" />
        </mxCell>
        <mxCell id="UGg4PgSskXbCSSMDs-lN-21" value="" style="ellipse;whiteSpace=wrap;html=1;aspect=fixed;" vertex="1" parent="1">
          <mxGeometry x="520" y="390" width="30" height="30" as="geometry" />
        </mxCell>
        <mxCell id="UGg4PgSskXbCSSMDs-lN-22" value="" style="ellipse;whiteSpace=wrap;html=1;aspect=fixed;" vertex="1" parent="1">
          <mxGeometry x="520" y="180" width="30" height="30" as="geometry" />
        </mxCell>
        <mxCell id="UGg4PgSskXbCSSMDs-lN-23" value="" style="ellipse;whiteSpace=wrap;html=1;aspect=fixed;" vertex="1" parent="1">
          <mxGeometry x="520" y="440" width="30" height="30" as="geometry" />
        </mxCell>
        <mxCell id="UGg4PgSskXbCSSMDs-lN-24" value="" style="ellipse;whiteSpace=wrap;html=1;aspect=fixed;" vertex="1" parent="1">
          <mxGeometry x="520" y="130" width="30" height="30" as="geometry" />
        </mxCell>
        <mxCell id="UGg4PgSskXbCSSMDs-lN-25" value="" style="ellipse;whiteSpace=wrap;html=1;aspect=fixed;" vertex="1" parent="1">
          <mxGeometry x="642" y="230" width="30" height="30" as="geometry" />
        </mxCell>
        <mxCell id="UGg4PgSskXbCSSMDs-lN-26" value="" style="ellipse;whiteSpace=wrap;html=1;aspect=fixed;" vertex="1" parent="1">
          <mxGeometry x="640" y="285" width="30" height="30" as="geometry" />
        </mxCell>
        <mxCell id="UGg4PgSskXbCSSMDs-lN-28" value="" style="ellipse;whiteSpace=wrap;html=1;aspect=fixed;" vertex="1" parent="1">
          <mxGeometry x="642" y="340" width="30" height="30" as="geometry" />
        </mxCell>
        <mxCell id="UGg4PgSskXbCSSMDs-lN-43" value="" style="shape=image;verticalLabelPosition=bottom;labelBackgroundColor=default;verticalAlign=top;aspect=fixed;imageAspect=0;image=data:image/png,iVBORw0KGgoAAAANSUhEUgAAAawAAAFbCAYAAACJX7oNAAAgTklEQVR4Xu3Wsa3tyrFF0ROYApN3Q1MayubpT+O2UXTrEBz4vYDlbKM40Giy9s/Pzc3Nzc3Nzc3Nzc3Nzc3Nzc3Nzc3Nzc3Nzc3Nzc3Nzc3Nzc3Nzc3Nzc3Nzc3Nzc3Nzc3Nzc3Nzc3Nzc3/m/zn//rP7e3t7e3tL/XPz1L+ESO6RXPJ/a9//5eqaK6iW7zXormI7sxn2yxkziciukVzyT0/Ul+vaK6iW7zXormI7sxn2yxkziciukVzyT0/Ul+vaK6iW7zXormI7sxn2yxkziciukVzyT0/Ul+vaK6iW7zXormI7sxn2yxkziciukVzyT0/Ul+vaK6iW7zXormI7sxn2yxkziciukVzyT0/Ul+vaK6iW7zXormI7sxn2yxkziciukVzyT0/Ul+vaK6iW7zXormI7sxn2yxkziciukVzyT0/Ul+vaK6iW7zXormI7sxn2yxkziciukVzyT0/Ul+vaK6iW7zXormI7sxn2yxkziciukVzyT0/Ul+vaK6iW7zXormI7sxn2yxkziciukVzyT0/Ul+vaK6iW7zXormI7sxn2yxkziciukVzyT0/Ul+vaK6iW7zXormI7sxn2yxkziciukVzyT0/Ul+vaK6iW7zXormI7sxn2yxkziciukVzyT0/Ul+vaK6iW7zXormI7sxn2yxkziciukVzyT0/Ul+vaK6iW7zXormI7sxn2yxkziciukVzyT0/Ul+vaK6iW7zXormI7sxn2yxkziciukVzyT0/Ul+vaK6iW7zXormI7sxn2yxkziciukVzyT0/Ul+vaK6iW7zXormI7sxn2yxkziciukVzyT0/Ul+vaK6iW7zXormI7sxn2yxkziciukVzyT0/Ul+vaK6iW7zXormI7sxn2yxkziciukVzyT0/Ul+vaK6iW7zXormI7sxn2yxkziciukVzyT0/Ul+vaK6iW7zXormI7sxn2yxkziciukVzyT0/Ul+vaK6iW7zXormI7sxn2yxkziciukVzyT0/Ul+vaK6iW7zXormI7sxn2yxkziciukVzyT0/Ul+vaK6iW7zXormI7sxn2yxkziciukVzyT0/Ul+vaK6iW7zXormI7sxn2yxkziciukVzyT0/Ul+vaK6iW7zXormI7sxn2yxkziciukVzyT0/Ul+vaK6iW7zXormI7sxn2yxkziciukVzyT0/Ul+vaK6iW7zXormI7sxn2yxkziciukVzyT0/Ul+vaK6iW7zXormI7sxn2yxkziciukVzyT0/Ul+vaK6iW7zXormI7sxn2yxkziciukVzyT0/Ul+vaK6iW7zXormI7sxn2yxkziciukVzyT0/Ul+vaK6iW7zXormI7sxn2yxkziciukVzyT0/Ul+vaK6iW7zXormI7sxn2yxkziciukVzyT0/Ul+vaK6iW7zXormI7sxn2yxkziciukVzyT0/Ul+vaK6iW7zXormI7sxn2yxkziciukVzyT0/Ul+vaK6iW7zXormI7sxn2yxkziciukVzyT0/Ul+vaK6iW7zXormI7sxn2yxkziciukVzyT0/Ul+vaK6iW7zXormI7sxn2yxkziciukVzyT0/Ul+vaK6iW7zXormI7sxn2yxkziciukVzyT0/Ul+vaK6iW7zXormI7sxn2yzk78Db29vb29vf6J+fpcyFSER0i+aSe/6r/nrvWb9X8axFcxHdmc+2WcicT0R0i+aSe36kvt571u9VPGvRXER35rNtFjLnExHdornknh+pr/ee9XsVz1o0F9Gd+Wybhcz5RES3aC6550fq671n/V7FsxbNRXRnPttmIXM+EdEtmkvu+ZH6eu9Zv1fxrEVzEd2Zz7ZZyJxPRHSL5pJ7fqS+3nvW71U8a9FcRHfms20WMucTEd2iueSeH6mv9571exXPWjQX0Z35bJuFzPlERLdoLrnnR+rrvWf9XsWzFs1FdGc+22Yhcz4R0S2aS+75kfp671m/V/GsRXMR3ZnPtlnInE9EdIvmknt+pL7ee9bvVTxr0VxEd+azbRYy5xMR3aK55J4fqa/3nvV7Fc9aNBfRnflsm4XM+UREt2guuedH6uu9Z/1exbMWzUV0Zz7bZiFzPhHRLZpL7vmR+nrvWb9X8axFcxHdmc+2WcicT0R0i+aSe36kvt571u9VPGvRXER35rNtFjLnExHdornknh+pr/ee9XsVz1o0F9Gd+Wybhcz5RES3aC6550fq671n/V7FsxbNRXRnPttmIXM+EdEtmkvu+ZH6eu9Zv1fxrEVzEd2Zz7ZZyJxPRHSL5pJ7fqS+3nvW71U8a9FcRHfms20WMucTEd2iueSeH6mv9571exXPWjQX0Z35bJuFzPlERLdoLrnnR+rrvWf9XsWzFs1FdGc+22Yhcz4R0S2aS+75kfp671m/V/GsRXMR3ZnPtlnInE9EdIvmknt+pL7ee9bvVTxr0VxEd+azbRYy5xMR3aK55J4fqa/3nvV7Fc9aNBfRnflsm4XM+UREt2guuedH6uu9Z/1exbMWzUV0Zz7bZiFzPhHRLZpL7vmR+nrvWb9X8axFcxHdmc+2WcicT0R0i+aSe36kvt571u9VPGvRXER35rNtFjLnExHdornknh+pr/ee9XsVz1o0F9Gd+Wybhcz5RES3aC6550fq671n/V7FsxbNRXRnPttmIXM+EdEtmkvu+ZH6eu9Zv1fxrEVzEd2Zz7ZZyJxPRHSL5pJ7fqS+3nvW71U8a9FcRHfms20WMucTEd2iueSeH6mv9571exXPWjQX0Z35bJuFzPlERLdoLrnnR+rrvWf9XsWzFs1FdGc+22Yhcz4R0S2aS+75kfp671m/V/GsRXMR3ZnPtlnInE9EdIvmknt+pL7ee9bvVTxr0VxEd+azbRYy5xMR3aK55J4fqa/3nvV7Fc9aNBfRnflsm4XM+UREt2guuedH6uu9Z/1exbMWzUV0Zz7bZiFzPhHRLZpL7vmR+nrvWb9X8axFcxHdmc+2WcicT0R0i+aSe36kvt571u9VPGvRXER35rNtFjLnExHdornknh+pr/ee9XsVz1o0F9Gd+Wybhcz5RES3aC6550fq671n/V7FsxbNRXRnPttmIX8H3t7e3t7e/kb//Czl8Y9JaG4tormId0Q0V9Et3mvRXNT7cbbNQh4PEJpbi2gu4h0RzVV0i/daNBf1fpxts5DHA4Tm1iKai3hHRHMV3eK9Fs1FvR9n2yzk8QChubWI5iLeEdFcRbd4r0VzUe/H2TYLeTxAaG4tormId0Q0V9Et3mvRXNT7cbbNQh4PEJpbi2gu4h0RzVV0i/daNBf1fpxts5DHA4Tm1iKai3hHRHMV3eK9Fs1FvR9n2yzk8QChubWI5iLeEdFcRbd4r0VzUe/H2TYLeTxAaG4tormId0Q0V9Et3mvRXNT7cbbNQh4PEJpbi2gu4h0RzVV0i/daNBf1fpxts5DHA4Tm1iKai3hHRHMV3eK9Fs1FvR9n2yzk8QChubWI5iLeEdFcRbd4r0VzUe/H2TYLeTxAaG4tormId0Q0V9Et3mvRXNT7cbbNQh4PEJpbi2gu4h0RzVV0i/daNBf1fpxts5DHA4Tm1iKai3hHRHMV3eK9Fs1FvR9n2yzk8QChubWI5iLeEdFcRbd4r0VzUe/H2TYLeTxAaG4tormId0Q0V9Et3mvRXNT7cbbNQh4PEJpbi2gu4h0RzVV0i/daNBf1fpxts5DHA4Tm1iKai3hHRHMV3eK9Fs1FvR9n2yzk8QChubWI5iLeEdFcRbd4r0VzUe/H2TYLeTxAaG4tormId0Q0V9Et3mvRXNT7cbbNQh4PEJpbi2gu4h0RzVV0i/daNBf1fpxts5DHA4Tm1iKai3hHRHMV3eK9Fs1FvR9n2yzk8QChubWI5iLeEdFcRbd4r0VzUe/H2TYLeTxAaG4tormId0Q0V9Et3mvRXNT7cbbNQh4PEJpbi2gu4h0RzVV0i/daNBf1fpxts5DHA4Tm1iKai3hHRHMV3eK9Fs1FvR9n2yzk8QChubWI5iLeEdFcRbd4r0VzUe/H2TYLeTxAaG4tormId0Q0V9Et3mvRXNT7cbbNQh4PEJpbi2gu4h0RzVV0i/daNBf1fpxts5DHA4Tm1iKai3hHRHMV3eK9Fs1FvR9n2yzk8QChubWI5iLeEdFcRbd4r0VzUe/H2TYLeTxAaG4tormId0Q0V9Et3mvRXNT7cbbNQh4PEJpbi2gu4h0RzVV0i/daNBf1fpxts5DHA4Tm1iKai3hHRHMV3eK9Fs1FvR9n2yzk8QChubWI5iLeEdFcRbd4r0VzUe/H2TYLeTxAaG4tormId0Q0V9Et3mvRXNT7cbbNQh4PEJpbi2gu4h0RzVV0i/daNBf1fpxts5DHA4Tm1iKai3hHRHMV3eK9Fs1FvR9n2yzk8QChubWI5iLeEdFcRbd4r0VzUe/H2TYLeTxAaG4tormId0Q0V9Et3mvRXNT7cbbNQv4OvL29vb29/Y3++VnKYyMKza1FPuv529crmqvoVs1i1LM+22YhjwcIza1FPuv529crmqvoVs1i1LM+22YhjwcIza1FPuv529crmqvoVs1i1LM+22YhjwcIza1FPuv529crmqvoVs1i1LM+22YhjwcIza1FPuv529crmqvoVs1i1LM+22YhjwcIza1FPuv529crmqvoVs1i1LM+22YhjwcIza1FPuv529crmqvoVs1i1LM+22YhjwcIza1FPuv529crmqvoVs1i1LM+22YhjwcIza1FPuv529crmqvoVs1i1LM+22YhjwcIza1FPuv529crmqvoVs1i1LM+22YhjwcIza1FPuv529crmqvoVs1i1LM+22YhjwcIza1FPuv529crmqvoVs1i1LM+22YhjwcIza1FPuv529crmqvoVs1i1LM+22YhjwcIza1FPuv529crmqvoVs1i1LM+22YhjwcIza1FPuv529crmqvoVs1i1LM+22YhjwcIza1FPuv529crmqvoVs1i1LM+22YhjwcIza1FPuv529crmqvoVs1i1LM+22YhjwcIza1FPuv529crmqvoVs1i1LM+22YhjwcIza1FPuv529crmqvoVs1i1LM+22YhjwcIza1FPuv529crmqvoVs1i1LM+22YhjwcIza1FPuv529crmqvoVs1i1LM+22YhjwcIza1FPuv529crmqvoVs1i1LM+22YhjwcIza1FPuv529crmqvoVs1i1LM+22YhjwcIza1FPuv529crmqvoVs1i1LM+22YhjwcIza1FPuv529crmqvoVs1i1LM+22YhjwcIza1FPuv529crmqvoVs1i1LM+22YhjwcIza1FPuv529crmqvoVs1i1LM+22YhjwcIza1FPuv529crmqvoVs1i1LM+22YhjwcIza1FPuv529crmqvoVs1i1LM+22YhjwcIza1FPuv529crmqvoVs1i1LM+22YhjwcIza1FPuv529crmqvoVs1i1LM+22YhjwcIza1FPuv529crmqvoVs1i1LM+22YhjwcIza1FPuv529crmqvoVs1i1LM+22YhjwcIza1FPuv529crmqvoVs1i1LM+22YhjwcIza1FPuv529crmqvoVs1i1LM+22YhjwcIza1FPuv529crmqvoVs1i1LM+22YhjwcIza1FPuv529crmqvoVs1i1LM+22YhjwcIza1FPuv529crmqvoVs1i1LM+22YhjwcIza1FPuv529crmqvoVs1i1LM+22YhjwcIza1FPuv529crmqvoVs1i1LM+22Yhfwfe3t7e3t7+Rv/8LOWxEYWKbtFcRbdorqL7mt+r6M58ts1CHg8QKrpFcxXdormK7mt+r6I789k2C3k8QKjoFs1VdIvmKrqv+b2K7sxn2yzk8QChols0V9Etmqvovub3Krozn22zkMcDhIpu0VxFt2iuovua36vozny2zUIeDxAqukVzFd2iuYrua36vojvz2TYLeTxAqOgWzVV0i+Yquq/5vYruzGfbLOTxAKGiWzRX0S2aq+i+5vcqujOfbbOQxwOEim7RXEW3aK6i+5rfq+jOfLbNQh4PECq6RXMV3aK5iu5rfq+iO/PZNgt5PECo6BbNVXSL5iq6r/m9iu7MZ9ss5PEAoaJbNFfRLZqr6L7m9yq6M59ts5DHA4SKbtFcRbdorqL7mt+r6M58ts1CHg8QKrpFcxXdormK7mt+r6I789k2C3k8QKjoFs1VdIvmKrqv+b2K7sxn2yzk8QChols0V9Etmqvovub3Krozn22zkMcDhIpu0VxFt2iuovua36vozny2zUIeDxAqukVzFd2iuYrua36vojvz2TYLeTxAqOgWzVV0i+Yquq/5vYruzGfbLOTxAKGiWzRX0S2aq+i+5vcqujOfbbOQxwOEim7RXEW3aK6i+5rfq+jOfLbNQh4PECq6RXMV3aK5iu5rfq+iO/PZNgt5PECo6BbNVXSL5iq6r/m9iu7MZ9ss5PEAoaJbNFfRLZqr6L7m9yq6M59ts5DHA4SKbtFcRbdorqL7mt+r6M58ts1CHg8QKrpFcxXdormK7mt+r6I789k2C3k8QKjoFs1VdIvmKrqv+b2K7sxn2yzk8QChols0V9Etmqvovub3Krozn22zkMcDhIpu0VxFt2iuovua36vozny2zUIeDxAqukVzFd2iuYrua36vojvz2TYLeTxAqOgWzVV0i+Yquq/5vYruzGfbLOTxAKGiWzRX0S2aq+i+5vcqujOfbbOQxwOEim7RXEW3aK6i+5rfq+jOfLbNQh4PECq6RXMV3aK5iu5rfq+iO/PZNgt5PECo6BbNVXSL5iq6r/m9iu7MZ9ss5PEAoaJbNFfRLZqr6L7m9yq6M59ts5DHA4SKbtFcRbdorqL7mt+r6M58ts1CHg8QKrpFcxXdormK7mt+r6I789k2C3k8QKjoFs1VdIvmKrqv+b2K7sxn2yzk8QChols0V9Etmqvovub3Krozn22zkMcDhIpu0VxFt2iuovua36vozny2zUL+Dry9vb29vf2N/vlZyj9iRHfm+e9DqOgWzVV0q2Yxojvz2TYLmfOJiO7M88URKrpFcxXdqlmM6M58ts1C5nwiojvzfHGEim7RXEW3ahYjujOfbbOQOZ+I6M48Xxyhols0V9GtmsWI7sxn2yxkziciujPPF0eo6BbNVXSrZjGiO/PZNguZ84mI7szzxREqukVzFd2qWYzozny2zULmfCKiO/N8cYSKbtFcRbdqFiO6M59ts5A5n4jozjxfHKGiWzRX0a2axYjuzGfbLGTOJyK6M88XR6joFs1VdKtmMaI789k2C5nziYjuzPPFESq6RXMV3apZjOjOfLbNQuZ8IqI783xxhIpu0VxFt2oWI7ozn22zkDmfiOjOPF8coaJbNFfRrZrFiO7MZ9ssZM4nIrozzxdHqOgWzVV0q2Yxojvz2TYLmfOJiO7M88URKrpFcxXdqlmM6M58ts1C5nwiojvzfHGEim7RXEW3ahYjujOfbbOQOZ+I6M48Xxyhols0V9GtmsWI7sxn2yxkziciujPPF0eo6BbNVXSrZjGiO/PZNguZ84mI7szzxREqukVzFd2qWYzozny2zULmfCKiO/N8cYSKbtFcRbdqFiO6M59ts5A5n4jozjxfHKGiWzRX0a2axYjuzGfbLGTOJyK6M88XR6joFs1VdKtmMaI789k2C5nziYjuzPPFESq6RXMV3apZjOjOfLbNQuZ8IqI783xxhIpu0VxFt2oWI7ozn22zkDmfiOjOPF8coaJbNFfRrZrFiO7MZ9ssZM4nIrozzxdHqOgWzVV0q2Yxojvz2TYLmfOJiO7M88URKrpFcxXdqlmM6M58ts1C5nwiojvzfHGEim7RXEW3ahYjujOfbbOQOZ+I6M48Xxyhols0V9GtmsWI7sxn2yxkziciujPPF0eo6BbNVXSrZjGiO/PZNguZ84mI7szzxREqukVzFd2qWYzozny2zULmfCKiO/N8cYSKbtFcRbdqFiO6M59ts5A5n4jozjxfHKGiWzRX0a2axYjuzGfbLGTOJyK6M88XR6joFs1VdKtmMaI789k2C5nziYjuzPPFESq6RXMV3apZjOjOfLbNQuZ8IqI783xxhIpu0VxFt2oWI7ozn22zkDmfiOjOPF8coaJbNFfRrZrFiO7MZ9ssZM4nIrozzxdHqOgWzVV0q2Yxojvz2TYLmfOJiO7M88URKrpFcxXdqlmM6M58ts1C5nwiojvzfHGEim7RXEW3ahYjujOfbbOQOZ+I6M48Xxyhols0V9GtmsWI7sxn2yzk78Db29vb29vf6J+fpcyFSER0i+YiujPPf9VC1bPWIpqL6M58ts1C5nwiols0F9GdeS4DoepZaxHNRXRnPttmIXM+EdEtmovozjyXgVD1rLWI5iK6M59ts5A5n4joFs1FdGeey0CoetZaRHMR3ZnPtlnInE9EdIvmIrozz2UgVD1rLaK5iO7MZ9ssZM4nIrpFcxHdmecyEKqetRbRXER35rNtFjLnExHdormI7sxzGQhVz1qLaC6iO/PZNguZ84mIbtFcRHfmuQyEqmetRTQX0Z35bJuFzPlERLdoLqI781wGQtWz1iKai+jOfLbNQuZ8IqJbNBfRnXkuA6HqWWsRzUV0Zz7bZiFzPhHRLZqL6M48l4FQ9ay1iOYiujOfbbOQOZ+I6BbNRXRnnstAqHrWWkRzEd2Zz7ZZyJxPRHSL5iK6M89lIFQ9ay2iuYjuzGfbLGTOJyK6RXMR3ZnnMhCqnrUW0VxEd+azbRYy5xMR3aK5iO7McxkIVc9ai2guojvz2TYLmfOJiG7RXER35rkMhKpnrUU0F9Gd+Wybhcz5RES3aC6iO/NcBkLVs9Yimovozny2zULmfCKiWzQX0Z15LgOh6llrEc1FdGc+22Yhcz4R0S2ai+jOPJeBUPWstYjmIrozn22zkDmfiOgWzUV0Z57LQKh61lpEcxHdmc+2WcicT0R0i+YiujPPZSBUPWstormI7sxn2yxkziciukVzEd2Z5zIQqp61FtFcRHfms20WMucTEd2iuYjuzHMZCFXPWotoLqI789k2C5nziYhu0VxEd+a5DISqZ61FNBfRnflsm4XM+UREt2guojvzXAZC1bPWIpqL6M58ts1C5nwiols0F9GdeS4DoepZaxHNRXRnPttmIXM+EdEtmovozjyXgVD1rLWI5iK6M59ts5A5n4joFs1FdGeey0CoetZaRHMR3ZnPtlnInE9EdIvmIrozz2UgVD1rLaK5iO7MZ9ssZM4nIrpFcxHdmecyEKqetRbRXER35rNtFjLnExHdormI7sxzGQhVz1qLaC6iO/PZNguZ84mIbtFcRHfmuQyEqmetRTQX0Z35bJuFzPlERLdoLqI781wGQtWz1iKai+jOfLbNQuZ8IqJbNBfRnXkuA6HqWWsRzUV0Zz7bZiFzPhHRLZqL6M48l4FQ9ay1iOYiujOfbbOQOZ+I6BbNRXRnnstAqHrWWkRzEd2Zz7ZZyJxPRHSL5iK6M89lIFQ9ay2iuYjuzGfbLGTOJyK6RXMR3ZnnMhCqnrUW0VxEd+azbRYy5xMR3aK5iO7McxkIVc9ai2guojvz2TYLmfOJiG7RXER35rkMhKpnrUU0F9Gd+Wybhcz5RES3aC6iO/NcBkLVs9Yimovozny2zUL+Dry9vb29vf2N/vlZylyIRER35vmPWqjoFs1VdKtmMaI789k2C5nziYjuzPPFESq6RXMV3apZjOjOfLbNQuZ8IqI783xxhIpu0VxFt2oWI7ozn22zkDmfiOjOPF8coaJbNFfRrZrFiO7MZ9ssZM4nIrozzxdHqOgWzVV0q2Yxojvz2TYLmfOJiO7M88URKrpFcxXdqlmM6M58ts1C5nwiojvzfHGEim7RXEW3ahYjujOfbbOQOZ+I6M48Xxyhols0V9GtmsWI7sxn2yxkziciujPPF0eo6BbNVXSrZjGiO/PZNguZ84mI7szzxREqukVzFd2qWYzozny2zULmfCKiO/N8cYSKbtFcRbdqFiO6M59ts5A5n4jozjxfHKGiWzRX0a2axYjuzGfbLGTOJyK6M88XR6joFs1VdKtmMaI789k2C5nziYjuzPPFESq6RXMV3apZjOjOfLbNQuZ8IqI783xxhIpu0VxFt2oWI7ozn22zkDmfiOjOPF8coaJbNFfRrZrFiO7MZ9ssZM4nIrozzxdHqOgWzVV0q2Yxojvz2TYLmfOJiO7M88URKrpFcxXdqlmM6M58ts1C5nwiojvzfHGEim7RXEW3ahYjujOfbbOQOZ+I6M48Xxyhols0V9GtmsWI7sxn2yxkziciujPPF0eo6BbNVXSrZjGiO/PZNguZ84mI7szzxREqukVzFd2qWYzozny2zULmfCKiO/N8cYSKbtFcRbdqFiO6M59ts5A5n4jozjxfHKGiWzRX0a2axYjuzGfbLGTOJyK6M88XR6joFs1VdKtmMaI789k2C5nziYjuzPPFESq6RXMV3apZjOjOfLbNQuZ8IqI783xxhIpu0VxFt2oWI7ozn22zkDmfiOjOPF8coaJbNFfRrZrFiO7MZ9ssZM4nIrozzxdHqOgWzVV0q2Yxojvz2TYLmfOJiO7M88URKrpFcxXdqlmM6M58ts1C5nwiojvzfHGEim7RXEW3ahYjujOfbbOQOZ+I6M48Xxyhols0V9GtmsWI7sxn2yxkziciujPPF0eo6BbNVXSrZjGiO/PZNguZ84mI7szzxREqukVzFd2qWYzozny2zULmfCKiO/N8cYSKbtFcRbdqFiO6M59ts5A5n4jozjxfHKGiWzRX0a2axYjuzGfbLGTOJyK6M88XR6joFs1VdKtmMaI789k2C5nziYjuzPPFESq6RXMV3apZjOjOfLbNQuZ8IqI783xxhIpu0VxFt2oWI7ozn22zkDmfiOjOPF8coaJbNFfRrZrFiO7MZ9ss5O/A29vb29vb3+ifn6WsDXo5ols0F9Etmovovub3IrpF883Nzc3Nzc3Nzc3Nzc3Nzc3Nzc3Nzc3Nzc3Nz/8AiGzuj7T4kCcAAAAASUVORK5CYII=;" vertex="1" parent="1">
          <mxGeometry x="20" y="185" width="283.69" height="230" as="geometry" />
        </mxCell>
        <mxCell id="UGg4PgSskXbCSSMDs-lN-44" value="" style="shape=waypoint;sketch=0;fillStyle=solid;size=6;pointerEvents=1;points=[];fillColor=none;resizable=0;rotatable=0;perimeter=centerPerimeter;snapToPoint=1;" vertex="1" parent="1">
          <mxGeometry x="405" y="164" width="40" height="40" as="geometry" />
        </mxCell>
        <mxCell id="UGg4PgSskXbCSSMDs-lN-45" value="" style="shape=waypoint;sketch=0;fillStyle=solid;size=6;pointerEvents=1;points=[];fillColor=none;resizable=0;rotatable=0;perimeter=centerPerimeter;snapToPoint=1;" vertex="1" parent="1">
          <mxGeometry x="405" y="179" width="40" height="40" as="geometry" />
        </mxCell>
        <mxCell id="UGg4PgSskXbCSSMDs-lN-46" value="" style="shape=waypoint;sketch=0;fillStyle=solid;size=6;pointerEvents=1;points=[];fillColor=none;resizable=0;rotatable=0;perimeter=centerPerimeter;snapToPoint=1;" vertex="1" parent="1">
          <mxGeometry x="405" y="194" width="40" height="40" as="geometry" />
        </mxCell>
        <mxCell id="UGg4PgSskXbCSSMDs-lN-47" value="" style="shape=waypoint;sketch=0;fillStyle=solid;size=6;pointerEvents=1;points=[];fillColor=none;resizable=0;rotatable=0;perimeter=centerPerimeter;snapToPoint=1;" vertex="1" parent="1">
          <mxGeometry x="405" y="360" width="40" height="40" as="geometry" />
        </mxCell>
        <mxCell id="UGg4PgSskXbCSSMDs-lN-48" value="" style="shape=waypoint;sketch=0;fillStyle=solid;size=6;pointerEvents=1;points=[];fillColor=none;resizable=0;rotatable=0;perimeter=centerPerimeter;snapToPoint=1;" vertex="1" parent="1">
          <mxGeometry x="405" y="375" width="40" height="40" as="geometry" />
        </mxCell>
        <mxCell id="UGg4PgSskXbCSSMDs-lN-49" value="" style="shape=waypoint;sketch=0;fillStyle=solid;size=6;pointerEvents=1;points=[];fillColor=none;resizable=0;rotatable=0;perimeter=centerPerimeter;snapToPoint=1;" vertex="1" parent="1">
          <mxGeometry x="405" y="390" width="40" height="40" as="geometry" />
        </mxCell>
      </root>
    </mxGraphModel>
  </diagram>
</mxfile>
